<?xml version="1.0" encoding="UTF-8" standalone="no"?>
<!DOCTYPE svg PUBLIC "-//W3C//DTD SVG 1.1//EN" "http://www.w3.org/Graphics/SVG/1.1/DTD/svg11.dtd">
<svg width="100%" height="100%" viewBox="0 0 976 586" version="1.1" xmlns="http://www.w3.org/2000/svg" xmlns:xlink="http://www.w3.org/1999/xlink" xml:space="preserve" xmlns:serif="http://www.serif.com/" style="fill-rule:evenodd;clip-rule:evenodd;stroke-miterlimit:10;">
    <g transform="matrix(1,0,0,1,18,280)">
        <text x="470px" y="136.093px" style="font-family:'BreuerText-Bold', 'BreuerText';font-weight:700;font-size:80.736px;fill:white;">ROMANIAN</text>
        <text x="470px" y="218.444px" style="font-family:'BreuerText-Bold', 'BreuerText';font-weight:700;font-size:80.736px;fill:white;">BUSINESS</text>
        <text x="470px" y="300.795px" style="font-family:'BreuerText-Bold', 'BreuerText';font-weight:700;font-size:80.736px;fill:white;">LEADERS</text>
    </g>
    <g transform="matrix(1.40358,0,0,1.40358,22.778,-626.087)">
        <g transform="matrix(158.195,-170.187,-170.187,-158.195,61.2995,668.291)">
            <path d="M0.806,0.134C0.789,0.128 0.772,0.123 0.755,0.118C0.732,0.112 0.708,0.119 0.685,0.121C0.603,0.129 0.52,0.128 0.438,0.119C0.418,0.117 0.4,0.12 0.389,0.102C0.379,0.086 0.376,0.069 0.356,0.072C0.317,0.076 0.277,0.075 0.237,0.07C0.195,0.066 0.153,0.057 0.111,0.047C0.077,0.039 0.039,0.041 0.004,0.035C0.022,0.031 0.04,0.025 0.057,0.018C0.029,0.005 0.001,-0.009 -0.026,-0.023C-0.007,-0.022 0.013,-0.021 0.033,-0.022C0.003,-0.044 -0.026,-0.065 -0.055,-0.088C-0.015,-0.071 0.021,-0.05 0.06,-0.034C0.103,-0.026 0.146,-0.02 0.19,-0.019C0.23,-0.018 0.269,-0.021 0.308,-0.029C0.312,-0.03 0.315,-0.031 0.319,-0.032C0.343,-0.031 0.366,-0.031 0.39,-0.031C0.397,-0.021 0.403,-0.007 0.408,0.001C0.472,0 0.536,-0.008 0.597,-0.021C0.628,-0.012 0.656,-0.006 0.688,-0.007L0.717,-0.008L0.684,-0.046C0.758,-0.071 0.829,-0.106 0.895,-0.153C0.904,-0.144 0.913,-0.135 0.922,-0.126C0.89,-0.118 0.874,-0.07 0.855,-0.044C0.873,-0.044 0.892,-0.045 0.91,-0.047C0.938,-0.049 0.949,-0.046 0.954,-0.074C0.973,-0.057 0.991,-0.041 1.009,-0.024C0.965,0.006 0.917,0.031 0.867,0.05C0.876,0.054 0.891,0.05 0.897,0.058C0.902,0.065 0.907,0.074 0.914,0.081C0.895,0.088 0.876,0.095 0.856,0.101C0.871,0.117 0.885,0.134 0.9,0.15C0.866,0.152 0.838,0.144 0.806,0.134Z" style="fill:url(#_Linear1);fill-rule:nonzero;"/>
        </g>
        <g transform="matrix(1,0,0,1,61.1229,506.486)">
            <path d="M0,169.967C2.835,166.371 5.842,162.994 9.107,159.783C8.078,168.196 7.156,176.617 6.34,185.051C9.892,175.738 12,166.226 15.439,156.987C20.909,148.425 26.833,140.118 33.568,132.497C39.655,125.609 46.426,119.323 53.933,114.005C54.612,113.523 55.304,113.058 55.996,112.592C59.629,108.411 63.354,104.377 67.15,100.475C66.506,97.621 65.122,94.466 64.513,92.199C74.9,81.47 86.189,71.862 98.296,63.578C101.568,56.75 104.966,51.043 110.202,45.857L115.023,41.087L116.092,52.697C132.144,43.997 149.406,37.513 167.732,33.677C167.657,30.8 167.563,27.766 167.476,24.832C160.972,28.957 150.421,24.163 142.922,23.411C145.792,20.19 148.861,17.134 152.082,14.267C156.956,9.929 158.11,7.706 163.537,11.162C163.711,5.282 163.837,-0.315 163.971,-6.162C151.804,-3.409 139.992,0.85 128.797,6.347C129.62,4.22 132.697,2.282 132.272,0.058C131.861,-2.093 131.074,-4.315 130.955,-6.511C126.669,-4.462 122.487,-2.256 118.375,0.122C117.908,-4.948 117.44,-10.016 116.972,-15.084C111.458,-9.624 108.178,-3.622 104.91,3.403C103.157,7.172 101.437,10.955 99.514,14.643C97.002,19.458 92.009,22.464 87.978,26.051C73.663,38.792 60.787,53.05 49.282,68.366C46.395,72.209 43.075,74.669 44.379,79.52C45.51,83.729 47.857,86.805 44.359,89.831C37.355,95.889 31.23,102.905 25.723,110.328C19.807,118.304 14.578,126.771 9.714,135.419C5.691,142.57 -0.631,148.598 -5.124,155.591C-1.572,153.139 2.092,151.043 6.009,149.229C3.808,156.091 1.814,162.995 0,169.967Z" style="fill:none;fill-rule:nonzero;stroke:white;stroke-width:24.65px;"/>
        </g>
        <g transform="matrix(159.49,-176.511,-176.511,-159.49,123.071,738.326)">
            <path d="M0.805,0.132C0.789,0.127 0.772,0.121 0.755,0.117C0.743,0.114 0.731,0.114 0.719,0.116C0.719,0.116 0.719,0.115 0.719,0.115C0.725,0.109 0.731,0.105 0.737,0.103L0.76,0.097L0.737,0.075C0.73,0.068 0.722,0.061 0.716,0.055L0.707,0.047L0.698,0.054C0.659,0.082 0.618,0.107 0.574,0.127C0.531,0.128 0.489,0.126 0.446,0.122C0.426,0.12 0.409,0.124 0.397,0.106C0.388,0.091 0.385,0.075 0.365,0.077C0.327,0.082 0.287,0.081 0.249,0.077C0.207,0.073 0.166,0.066 0.125,0.057C0.092,0.049 0.055,0.052 0.021,0.046C0.038,0.042 0.055,0.036 0.072,0.029C0.044,0.017 0.017,0.004 -0.01,-0.01C0.009,-0.009 0.028,-0.009 0.048,-0.01C0.019,-0.031 -0.01,-0.052 -0.039,-0.073C-0.001,-0.056 0.036,-0.037 0.074,-0.022C0.116,-0.015 0.159,-0.01 0.202,-0.01C0.24,-0.009 0.279,-0.013 0.317,-0.021C0.336,-0.025 0.354,-0.031 0.372,-0.037C0.391,-0.044 0.404,-0.009 0.415,0.007C0.585,0.002 0.749,-0.048 0.888,-0.15C0.897,-0.141 0.906,-0.132 0.915,-0.124C0.884,-0.115 0.869,-0.069 0.85,-0.043C0.868,-0.043 0.886,-0.044 0.905,-0.046C0.932,-0.049 0.942,-0.046 0.946,-0.073C0.965,-0.057 0.983,-0.042 1.002,-0.026C0.959,0.005 0.912,0.029 0.864,0.049C0.873,0.052 0.887,0.048 0.893,0.056C0.899,0.063 0.903,0.072 0.91,0.078C0.891,0.086 0.873,0.093 0.854,0.099C0.868,0.115 0.883,0.13 0.897,0.146C0.865,0.148 0.837,0.141 0.805,0.132Z" style="fill:url(#_Linear2);fill-rule:nonzero;"/>
        </g>
        <g transform="matrix(1,0,0,1,291.101,708.036)">
            <path d="M0,-102.613C-0.076,-105.491 -0.167,-108.524 -0.255,-111.459C-6.759,-107.334 -17.309,-112.127 -24.809,-112.878C-21.937,-116.101 -18.87,-119.156 -15.648,-122.023C-10.773,-126.362 -9.619,-128.585 -4.195,-125.127C-4.018,-131.008 -3.892,-136.605 -3.761,-142.452C-15.928,-139.698 -27.74,-135.44 -38.935,-129.944C-38.111,-132.069 -35.032,-134.008 -35.458,-136.231C-35.872,-138.383 -36.657,-140.608 -36.776,-142.801C-41.063,-140.753 -45.243,-138.546 -49.357,-136.169C-49.822,-141.237 -50.292,-146.305 -50.757,-151.375C-56.274,-145.914 -59.553,-139.913 -62.821,-132.887C-64.576,-129.119 -66.295,-125.335 -68.217,-121.648C-69.573,-119.046 -71.66,-116.979 -73.922,-115.057C-73.824,-115.056 -73.723,-115.048 -73.627,-115.048C-71.561,-115.048 -69.961,-115.427 -68.733,-116.204L-63.985,-119.217L-63.765,-111.72C-63.693,-109.379 -63.622,-107.012 -63.564,-104.741L-63.496,-102.071L-66.109,-101.524C-77.313,-99.177 -88.296,-95.753 -98.964,-91.32C-105.848,-83.861 -112.347,-76.049 -118.447,-67.925C-121.335,-64.08 -124.656,-61.622 -123.351,-56.769C-122.222,-52.56 -119.874,-49.486 -123.373,-46.458C-130.374,-40.402 -136.498,-33.386 -142.008,-25.961C-147.924,-17.986 -153.151,-9.52 -158.018,-0.87C-162.038,6.279 -168.36,12.307 -172.854,19.302C-169.301,16.85 -165.641,14.752 -161.723,12.94C-163.926,19.8 -165.917,26.704 -167.731,33.677C-164.896,30.08 -161.889,26.703 -158.625,23.493C-159.654,31.905 -160.577,40.327 -161.391,48.762C-158.186,39.379 -155.73,29.936 -152.291,20.696C-146.82,12.134 -140.899,3.827 -134.164,-3.793C-128.074,-10.679 -121.304,-16.966 -113.8,-22.285C-110.066,-24.929 -106.165,-27.335 -102.129,-29.488C-97.831,-31.782 -102.023,-39.647 -103.218,-44.091C-74.937,-73.304 -39.984,-94.241 0,-102.613Z" style="fill:none;fill-rule:nonzero;stroke:white;stroke-width:24.65px;stroke-linecap:square;"/>
        </g>
        <g transform="matrix(167.539,-185.42,-185.42,-167.539,54.7882,737.963)">
            <path d="M0.776,0.125C0.76,0.12 0.744,0.115 0.728,0.111C0.707,0.106 0.685,0.113 0.663,0.115C0.587,0.123 0.51,0.123 0.434,0.116C0.415,0.115 0.398,0.118 0.387,0.101C0.378,0.086 0.375,0.071 0.357,0.073C0.32,0.078 0.283,0.077 0.246,0.074C0.206,0.07 0.167,0.063 0.128,0.054C0.096,0.047 0.062,0.049 0.029,0.044C0.046,0.04 0.062,0.035 0.078,0.028C0.051,0.016 0.025,0.003 0,-0.01C0.018,-0.009 0.036,-0.009 0.054,-0.01C0.027,-0.029 -0.001,-0.049 -0.028,-0.069C0.011,-0.054 0.043,-0.036 0.08,-0.021C0.12,-0.014 0.16,-0.01 0.201,-0.009C0.238,-0.009 0.275,-0.012 0.311,-0.02C0.329,-0.024 0.346,-0.029 0.363,-0.035C0.382,-0.042 0.394,-0.008 0.404,0.007C0.566,0.002 0.722,-0.046 0.854,-0.142C0.863,-0.134 0.872,-0.126 0.88,-0.118C0.85,-0.11 0.836,-0.065 0.818,-0.041C0.836,-0.041 0.853,-0.042 0.87,-0.044C0.896,-0.047 0.906,-0.044 0.91,-0.069C0.928,-0.054 0.945,-0.04 0.963,-0.024C0.922,0.004 0.877,0.028 0.831,0.047C0.84,0.05 0.854,0.046 0.859,0.053C0.864,0.06 0.869,0.068 0.875,0.075C0.858,0.082 0.84,0.088 0.822,0.094C0.835,0.109 0.849,0.124 0.863,0.139C0.832,0.141 0.805,0.135 0.776,0.125Z" style="fill:url(#_Linear3);fill-rule:nonzero;"/>
        </g>
        <g transform="matrix(1,0,0,1,224.337,705.993)">
            <path d="M0,-102.614C-0.075,-105.492 -0.169,-108.525 -0.256,-111.46C-6.76,-107.335 -17.311,-112.128 -24.81,-112.879C-21.939,-116.102 -18.873,-119.157 -15.649,-122.024C-10.774,-126.363 -9.62,-128.586 -4.195,-125.128C-4.02,-131.009 -3.894,-136.606 -3.761,-142.453C-15.928,-139.699 -27.74,-135.441 -38.935,-129.945C-38.112,-132.07 -35.035,-134.009 -35.46,-136.232C-35.871,-138.384 -36.657,-140.607 -36.777,-142.802C-41.063,-140.754 -45.243,-138.547 -49.357,-136.168C-49.825,-141.238 -50.292,-146.306 -50.76,-151.376C-56.274,-145.915 -59.554,-139.914 -62.821,-132.888C-64.576,-129.12 -66.297,-125.336 -68.219,-121.649C-70.728,-116.834 -75.723,-113.827 -79.755,-110.239C-94.068,-97.499 -106.946,-83.242 -118.45,-67.925C-121.336,-64.083 -124.657,-61.623 -123.352,-56.772C-122.222,-52.563 -119.875,-49.485 -123.373,-46.461C-130.377,-40.403 -136.501,-33.385 -142.009,-25.962C-147.924,-17.987 -153.153,-9.519 -158.018,-0.87C-162.04,6.279 -168.363,12.306 -172.856,19.302C-169.303,16.847 -165.64,14.753 -161.723,12.937C-163.924,19.799 -165.918,26.703 -167.732,33.676C-164.897,30.08 -161.89,26.702 -158.625,23.492C-159.654,31.904 -160.576,40.325 -161.392,48.762C-157.558,38.955 -155.732,29.934 -152.292,20.697C-146.821,12.133 -140.899,3.826 -134.165,-3.794C-128.076,-10.68 -121.306,-16.967 -113.8,-22.286C-110.068,-24.931 -106.165,-27.335 -102.129,-29.49C-97.832,-31.783 -102.023,-39.649 -103.219,-44.092C-74.939,-73.305 -39.984,-94.242 0,-102.614C-0.004,-102.741 -41.887,-93.843 0,-102.614Z" style="fill:none;fill-rule:nonzero;stroke:white;stroke-width:24.65px;"/>
        </g>
        <g transform="matrix(158.195,-170.187,-170.187,-158.195,61.2995,668.291)">
            <path d="M0.806,0.134C0.789,0.128 0.772,0.123 0.755,0.118C0.732,0.112 0.708,0.119 0.685,0.121C0.603,0.129 0.52,0.128 0.438,0.119C0.418,0.117 0.4,0.12 0.389,0.102C0.379,0.086 0.376,0.069 0.356,0.072C0.317,0.076 0.277,0.075 0.237,0.07C0.195,0.066 0.153,0.057 0.111,0.047C0.077,0.039 0.039,0.041 0.004,0.035C0.022,0.031 0.04,0.025 0.057,0.018C0.029,0.005 0.001,-0.009 -0.026,-0.023C-0.007,-0.022 0.013,-0.021 0.033,-0.022C0.003,-0.044 -0.026,-0.065 -0.055,-0.088C-0.018,-0.068 0.021,-0.05 0.06,-0.034C0.103,-0.026 0.146,-0.02 0.19,-0.019C0.23,-0.018 0.269,-0.021 0.308,-0.029C0.312,-0.03 0.315,-0.031 0.319,-0.032C0.343,-0.031 0.366,-0.031 0.39,-0.031C0.397,-0.021 0.403,-0.007 0.408,0.001C0.472,0 0.536,-0.008 0.597,-0.021C0.628,-0.012 0.656,-0.006 0.688,-0.007L0.717,-0.008L0.684,-0.046C0.758,-0.071 0.829,-0.106 0.895,-0.153C0.904,-0.144 0.913,-0.135 0.922,-0.126C0.89,-0.118 0.874,-0.07 0.855,-0.044C0.873,-0.044 0.892,-0.045 0.91,-0.047C0.938,-0.049 0.949,-0.046 0.954,-0.074C0.973,-0.057 0.991,-0.041 1.009,-0.024C0.965,0.006 0.917,0.031 0.867,0.05C0.876,0.054 0.891,0.05 0.897,0.058C0.902,0.065 0.907,0.074 0.914,0.081C0.895,0.088 0.876,0.095 0.856,0.101C0.871,0.117 0.885,0.134 0.9,0.15C0.866,0.152 0.838,0.144 0.806,0.134Z" style="fill:url(#_Linear4);fill-rule:nonzero;"/>
        </g>
        <g transform="matrix(159.49,-176.511,-176.511,-159.49,123.071,738.326)">
            <path d="M0.805,0.132C0.789,0.127 0.772,0.121 0.755,0.117C0.743,0.114 0.731,0.114 0.719,0.116C0.719,0.116 0.719,0.115 0.719,0.115C0.725,0.109 0.731,0.105 0.737,0.103L0.76,0.097L0.737,0.075C0.73,0.068 0.722,0.061 0.716,0.055L0.707,0.047L0.698,0.054C0.659,0.082 0.618,0.107 0.574,0.127C0.531,0.128 0.489,0.126 0.446,0.122C0.426,0.12 0.409,0.124 0.397,0.106C0.388,0.091 0.385,0.075 0.365,0.077C0.327,0.082 0.287,0.081 0.249,0.077C0.207,0.073 0.166,0.066 0.125,0.057C0.092,0.049 0.055,0.052 0.021,0.046C0.038,0.042 0.055,0.036 0.072,0.029C0.044,0.017 0.017,0.004 -0.01,-0.01C0.009,-0.009 0.028,-0.009 0.048,-0.01C0.019,-0.031 -0.01,-0.052 -0.039,-0.073C-0.002,-0.054 0.036,-0.037 0.074,-0.022C0.116,-0.015 0.159,-0.01 0.202,-0.01C0.24,-0.009 0.279,-0.013 0.317,-0.021C0.336,-0.025 0.354,-0.031 0.372,-0.037C0.391,-0.044 0.404,-0.009 0.415,0.007C0.585,0.002 0.749,-0.048 0.888,-0.15C0.897,-0.141 0.906,-0.132 0.915,-0.124C0.884,-0.115 0.869,-0.069 0.85,-0.043C0.868,-0.043 0.886,-0.044 0.905,-0.046C0.932,-0.049 0.942,-0.046 0.946,-0.073C0.965,-0.057 0.983,-0.042 1.002,-0.026C0.959,0.005 0.912,0.029 0.864,0.049C0.873,0.052 0.887,0.048 0.893,0.056C0.899,0.063 0.903,0.072 0.91,0.078C0.891,0.086 0.873,0.093 0.854,0.099C0.868,0.115 0.883,0.13 0.897,0.146C0.865,0.148 0.837,0.141 0.805,0.132Z" style="fill:url(#_Linear5);fill-rule:nonzero;"/>
        </g>
        <g transform="matrix(167.539,-185.42,-185.42,-167.539,54.7882,737.963)">
            <path d="M0.776,0.125C0.76,0.12 0.744,0.115 0.728,0.111C0.707,0.106 0.685,0.113 0.663,0.115C0.587,0.123 0.51,0.123 0.434,0.116C0.415,0.115 0.398,0.118 0.387,0.101C0.378,0.086 0.375,0.071 0.357,0.073C0.32,0.078 0.283,0.077 0.246,0.074C0.206,0.07 0.167,0.063 0.128,0.054C0.096,0.047 0.062,0.049 0.029,0.044C0.046,0.04 0.062,0.035 0.078,0.028C0.051,0.016 0.025,0.003 0,-0.01C0.018,-0.009 0.036,-0.009 0.054,-0.01C0.027,-0.029 -0.001,-0.049 -0.028,-0.069C0.007,-0.052 0.043,-0.036 0.08,-0.021C0.12,-0.014 0.16,-0.01 0.201,-0.009C0.238,-0.009 0.275,-0.012 0.311,-0.02C0.329,-0.024 0.346,-0.029 0.363,-0.035C0.382,-0.042 0.394,-0.008 0.404,0.007C0.566,0.002 0.722,-0.046 0.854,-0.142C0.863,-0.134 0.872,-0.126 0.88,-0.118C0.85,-0.11 0.836,-0.065 0.818,-0.041C0.836,-0.041 0.853,-0.042 0.87,-0.044C0.896,-0.047 0.906,-0.044 0.91,-0.069C0.928,-0.054 0.945,-0.04 0.963,-0.024C0.922,0.004 0.877,0.028 0.831,0.047C0.84,0.05 0.854,0.046 0.859,0.053C0.864,0.06 0.869,0.068 0.875,0.075C0.858,0.082 0.84,0.088 0.822,0.094C0.835,0.109 0.849,0.124 0.863,0.139C0.832,0.141 0.805,0.135 0.776,0.125Z" style="fill:url(#_Linear6);fill-rule:nonzero;"/>
        </g>
    </g>
    <defs>
        <linearGradient id="_Linear1" x1="0" y1="0" x2="1" y2="0" gradientUnits="userSpaceOnUse" gradientTransform="matrix(1,-5.55112e-17,-5.55112e-17,-1,0,-0.00121685)"><stop offset="0" style="stop-color:rgb(89,161,210);stop-opacity:1"/><stop offset="0.37" style="stop-color:rgb(38,36,123);stop-opacity:1"/><stop offset="0.4" style="stop-color:rgb(1,88,163);stop-opacity:1"/><stop offset="0.64" style="stop-color:rgb(0,139,204);stop-opacity:1"/><stop offset="1" style="stop-color:rgb(1,88,163);stop-opacity:1"/></linearGradient>
        <linearGradient id="_Linear2" x1="0" y1="0" x2="1" y2="0" gradientUnits="userSpaceOnUse" gradientTransform="matrix(1,0,0,-1,0,-0.00151558)"><stop offset="0" style="stop-color:rgb(237,28,36);stop-opacity:1"/><stop offset="0.37" style="stop-color:rgb(73,0,0);stop-opacity:1"/><stop offset="0.4" style="stop-color:rgb(175,17,22);stop-opacity:1"/><stop offset="0.64" style="stop-color:rgb(237,28,36);stop-opacity:1"/><stop offset="1" style="stop-color:rgb(187,20,26);stop-opacity:1"/></linearGradient>
        <linearGradient id="_Linear3" x1="0" y1="0" x2="1" y2="0" gradientUnits="userSpaceOnUse" gradientTransform="matrix(1,0,0,-1,0,-0.00144411)"><stop offset="0" style="stop-color:rgb(255,203,5);stop-opacity:1"/><stop offset="0.37" style="stop-color:rgb(207,78,29);stop-opacity:1"/><stop offset="0.4" style="stop-color:rgb(253,185,19);stop-opacity:1"/><stop offset="0.64" style="stop-color:rgb(255,221,0);stop-opacity:1"/><stop offset="1" style="stop-color:rgb(250,168,25);stop-opacity:1"/></linearGradient>
        <linearGradient id="_Linear4" x1="0" y1="0" x2="1" y2="0" gradientUnits="userSpaceOnUse" gradientTransform="matrix(1,-5.55112e-17,-5.55112e-17,-1,0,-0.00121685)"><stop offset="0" style="stop-color:rgb(89,161,210);stop-opacity:1"/><stop offset="0.37" style="stop-color:rgb(38,36,123);stop-opacity:1"/><stop offset="0.4" style="stop-color:rgb(1,88,163);stop-opacity:1"/><stop offset="0.64" style="stop-color:rgb(0,139,204);stop-opacity:1"/><stop offset="1" style="stop-color:rgb(1,88,163);stop-opacity:1"/></linearGradient>
        <linearGradient id="_Linear5" x1="0" y1="0" x2="1" y2="0" gradientUnits="userSpaceOnUse" gradientTransform="matrix(1,0,0,-1,0,-0.00151558)"><stop offset="0" style="stop-color:rgb(237,28,36);stop-opacity:1"/><stop offset="0.37" style="stop-color:rgb(73,0,0);stop-opacity:1"/><stop offset="0.4" style="stop-color:rgb(175,17,22);stop-opacity:1"/><stop offset="0.64" style="stop-color:rgb(237,28,36);stop-opacity:1"/><stop offset="1" style="stop-color:rgb(187,20,26);stop-opacity:1"/></linearGradient>
        <linearGradient id="_Linear6" x1="0" y1="0" x2="1" y2="0" gradientUnits="userSpaceOnUse" gradientTransform="matrix(1,0,0,-1,0,-0.00144411)"><stop offset="0" style="stop-color:rgb(255,203,5);stop-opacity:1"/><stop offset="0.37" style="stop-color:rgb(207,78,29);stop-opacity:1"/><stop offset="0.4" style="stop-color:rgb(253,185,19);stop-opacity:1"/><stop offset="0.64" style="stop-color:rgb(255,221,0);stop-opacity:1"/><stop offset="1" style="stop-color:rgb(250,168,25);stop-opacity:1"/></linearGradient>
    </defs>
</svg>
